<mxfile host="app.diagrams.net" agent="Mozilla/5.0 (Windows NT 10.0; Win64; x64) AppleWebKit/537.36 (KHTML, like Gecko) Chrome/134.0.0.0 Safari/537.36" version="26.2.7">
  <diagram name="第 1 页" id="SuJsh4YbnbcvhDDXH6bD">
    <mxGraphModel dx="1044" dy="535" grid="1" gridSize="10" guides="1" tooltips="1" connect="1" arrows="1" fold="1" page="1" pageScale="1" pageWidth="1100" pageHeight="1700" math="0" shadow="0">
      <root>
        <mxCell id="0" />
        <mxCell id="1" parent="0" />
        <mxCell id="d31bRkeiRKnErL-Pl1rK-23" value="发布订阅模式" style="text;html=1;align=center;verticalAlign=middle;whiteSpace=wrap;rounded=0;" parent="1" vertex="1">
          <mxGeometry x="500" y="50" width="140" height="20" as="geometry" />
        </mxCell>
        <mxCell id="WuKxW6vUXpf-kW4m_QQZ-12" value="" style="rounded=0;whiteSpace=wrap;html=1;" vertex="1" parent="1">
          <mxGeometry x="120" y="160" width="570" height="250" as="geometry" />
        </mxCell>
        <mxCell id="WuKxW6vUXpf-kW4m_QQZ-9" style="edgeStyle=orthogonalEdgeStyle;rounded=0;orthogonalLoop=1;jettySize=auto;html=1;" edge="1" parent="1" source="WuKxW6vUXpf-kW4m_QQZ-1" target="WuKxW6vUXpf-kW4m_QQZ-8">
          <mxGeometry relative="1" as="geometry" />
        </mxCell>
        <mxCell id="WuKxW6vUXpf-kW4m_QQZ-1" value="" style="shape=cylinder3;whiteSpace=wrap;html=1;boundedLbl=1;backgroundOutline=1;size=15;rotation=95;" vertex="1" parent="1">
          <mxGeometry x="440" y="160" width="60" height="80" as="geometry" />
        </mxCell>
        <mxCell id="WuKxW6vUXpf-kW4m_QQZ-2" value="" style="shape=cylinder3;whiteSpace=wrap;html=1;boundedLbl=1;backgroundOutline=1;size=15;rotation=95;" vertex="1" parent="1">
          <mxGeometry x="440" y="250" width="60" height="80" as="geometry" />
        </mxCell>
        <mxCell id="WuKxW6vUXpf-kW4m_QQZ-3" value="" style="shape=cylinder3;whiteSpace=wrap;html=1;boundedLbl=1;backgroundOutline=1;size=15;rotation=95;" vertex="1" parent="1">
          <mxGeometry x="440" y="340" width="60" height="80" as="geometry" />
        </mxCell>
        <mxCell id="WuKxW6vUXpf-kW4m_QQZ-5" value="broker1" style="text;html=1;align=center;verticalAlign=middle;whiteSpace=wrap;rounded=0;" vertex="1" parent="1">
          <mxGeometry x="430" y="190" width="60" height="30" as="geometry" />
        </mxCell>
        <mxCell id="WuKxW6vUXpf-kW4m_QQZ-10" style="edgeStyle=orthogonalEdgeStyle;rounded=0;orthogonalLoop=1;jettySize=auto;html=1;" edge="1" parent="1" source="WuKxW6vUXpf-kW4m_QQZ-6">
          <mxGeometry relative="1" as="geometry">
            <mxPoint x="310" y="130" as="targetPoint" />
          </mxGeometry>
        </mxCell>
        <mxCell id="WuKxW6vUXpf-kW4m_QQZ-6" value="broker2" style="text;html=1;align=center;verticalAlign=middle;whiteSpace=wrap;rounded=0;" vertex="1" parent="1">
          <mxGeometry x="430" y="275" width="60" height="30" as="geometry" />
        </mxCell>
        <mxCell id="WuKxW6vUXpf-kW4m_QQZ-11" style="edgeStyle=orthogonalEdgeStyle;rounded=0;orthogonalLoop=1;jettySize=auto;html=1;" edge="1" parent="1" source="WuKxW6vUXpf-kW4m_QQZ-7">
          <mxGeometry relative="1" as="geometry">
            <mxPoint x="310" y="130" as="targetPoint" />
          </mxGeometry>
        </mxCell>
        <mxCell id="WuKxW6vUXpf-kW4m_QQZ-7" value="broker3" style="text;html=1;align=center;verticalAlign=middle;whiteSpace=wrap;rounded=0;" vertex="1" parent="1">
          <mxGeometry x="430" y="360" width="60" height="30" as="geometry" />
        </mxCell>
        <UserObject label="broker信息收集器" treeRoot="1" id="WuKxW6vUXpf-kW4m_QQZ-8">
          <mxCell style="whiteSpace=wrap;html=1;align=center;treeFolding=1;treeMoving=1;newEdgeStyle={&quot;edgeStyle&quot;:&quot;elbowEdgeStyle&quot;,&quot;startArrow&quot;:&quot;none&quot;,&quot;endArrow&quot;:&quot;none&quot;};" vertex="1" parent="1">
            <mxGeometry x="250" y="70" width="120" height="60" as="geometry" />
          </mxCell>
        </UserObject>
        <mxCell id="WuKxW6vUXpf-kW4m_QQZ-13" value="" style="shape=cylinder3;whiteSpace=wrap;html=1;boundedLbl=1;backgroundOutline=1;size=15;" vertex="1" parent="1">
          <mxGeometry x="500" y="240" width="60" height="80" as="geometry" />
        </mxCell>
      </root>
    </mxGraphModel>
  </diagram>
</mxfile>
